<svg xmlns="http://www.w3.org/2000/svg" width="516" height="372.431" viewBox="0 0 516 372.431">
  <defs>
    <style>
      .cls-1, .cls-2 {
        fill: #fefefe;
      }

      .cls-1 {
        fill-rule: evenodd;
      }
    </style>
  </defs>
  <g id="Capa_x0020_1" transform="translate(0.003 -0.03)">
    <g id="_2226635001040" transform="translate(-0.003 0.03)">
      <path id="Trazado_172" data-name="Trazado 172" class="cls-1" d="M677.521.936c-47.957,4.679-87.433,24.15-118.963,56.83A189.837,189.837,0,0,0,531.9,92.644l5.725-1.108A175.969,175.969,0,0,1,551.905,71.6c7.679-9.266,16.387-18.661,26.319-25.714-2.184,2.739-4.554,4.013-7.077,6.8a82.373,82.373,0,0,0-5.786,7.884c-8.132,11.8-12.758,8.062-16.7,28.828l24.858-4.81a2.093,2.093,0,0,1,1.645.374l28.2,18.215c1.343-.647,3.094-.875,6.509.138,8.784,2.606,9.223,5.385,9.255,10.046L625,117.156c.791-4.585-.348-9.716,1.432-13.61,2.213-4.838,8.946-7.553,15.235-10.193,12.732-5.342,6.375-18.145,29.153-21.066,1.715-4.631.138-5.59,5.589-6.928,2.632-.648,7.851-2.354,9.442-2.418-.6,1.616-1.359,2.491-.495,4.164,3.246-.728,4.591-1.549,8.784-2.435,3.276-.692,6.438-1.378,8.372-3.974-2.482-3.862-6.381-2.25-11.259-3.082-2.2-4.183.795-2.71-1.235-4.722-1.957-1.939-2.575-.279-5.224-1.931,3.417-4.557,6.395-.467,11.411.11,5.064.584,8.156-1.49,11.927-2.779l-3.373,8.511c2.441,1.652,4.16,1.808,7.45,2.657,2.793.718,5.5,1.556,7.96.263-.711-6.923-4.527-2.243-6.882-10.087-4.975-16.571-8.474-9.285-13.6-18.713-3.274-6.025-5.417-3.271-11.511-2.374-1.926-3.722-2.956-6.376-8.795-7.063-5.319-.626-7.885,1.573-9.632,5.283-2.5,5.319-1.846,5.8-7.284,8.353-6.947,3.268-1.684,4.721-7.566,6.833-1.38-2.544-.172-5.313-.382-8.116-8.318-3.417-7.652.143-11.666-7.21,3.361-5.445,11.657-7.291,18.768-8.942,9.149-2.125,10.021-5.766,20.945-3.7,2.075,5.193,1.685,8.074,9.055,9.535,5.871,1.162,9.591-2.242,10.234-6.775-.125-.495-13.913-11.426-20.21-10.477-14.317,2.158.557,3.512-25.993,2.9C663.2,4.98,681.282,4.71,691.27,4.512c13.556-.27,18.276,2.8,28.1,10.854l-2.053,3.728c6.492,2.1,4.722,4.88,8.49,7.345,1.734,1.135,3.32,1.285,5.541,2.379,2.775,1.365,1.054,1.547,5.113,1.689,1.364-3.808-1.227-4.446,1.052-8.447,1.907-3.146,6.583-2.757,9.766-5.161-2.357-2.518-5.221-2.982-6.538-6.418,20.3,4.592,38.164,13.76,53.928,23.711,31.738,20.036,18.815,25.63,25.9,30.757,3.488,2.524,8.347,5.737,9.3,10.191l-8.325-.379c.908,5.572,4.389,8.853,6.951,14.487,3.189,7.012,13.73,11.645,11.706,1.151-.913-4.737-3.751-9.708-1.9-14.37,3.42-.592,1.883.426,2.515.978,3.748,3.272,10.441,14.7,12.276,18.74l-6.261.321-2.243,5.494c-4.7.015-3.67-.376-7.006-2.264a24.25,24.25,0,0,1,2.078,8.88,39.377,39.377,0,0,1,5.262-.353h19.491C832.721,40.932,761.568-7.259,677.52.939ZM528.754,274.429c33.666,61.7,101.978,104.344,182.392,97.264,61.882-5.448,117.626-41.962,147.668-95.421h-5.557a181.02,181.02,0,0,1-43.84,51.388,184.463,184.463,0,0,1-64.59,33.348,181.516,181.516,0,0,1-41.742,6.857,185.9,185.9,0,0,1-23.88-.425c-3.89-.33-7.428-.685-11.292-1.2-6.461-.868-4.893-.419-7.723-4.077l1.558-2.64c1.247-1.989.9-.921,1.7-3.262,11.574,1.258,3.41-1.146,11.108-2.839,5.5-1.21,7.329.258,12.811-2.274-.625-5.036-1.525-2.219-3.247-7.744,9.314.759,13.286,3.42,21.227-2.038,4.084-2.809,10.062-6.9,12.96-11.469,10.721-16.887,22.182-7.67,31.149-17.862,3.429-3.9,8.448-9.644,9.964-14.392,3.154-9.877,1.934-9.436,7.856-16.594,2.3-2.78,4.734-4,6.943-5.752a40.033,40.033,0,0,1-22.533-14.128,40.593,40.593,0,0,1-3.265,3.594,40.188,40.188,0,0,1-28.127,11.51H657.586a39.263,39.263,0,0,1-12.377-2.078l.011-.033a40.984,40.984,0,0,1-8.091-3.685q-1.189-.657-2.331-1.441l-.056-.039.015-.022-.124-.085a39.327,39.327,0,0,1-16.219-24.579,85.577,85.577,0,0,1-7.1,7.963q-1.135,1.124-2.314,2.207c10.9,14.9,10.762,21.817,15.329,26.269,15.073,14.691,24.752,10.49,18.516,39.589-1.329,6.194-.21,8.194-.742,13.886-.481,5.15-2.8,7.779-2.7,12.526.1,4.686,1.94,7.933,2.091,13.363-17.8-3.594-40.3-16.67-52.382-24.978a181.811,181.811,0,0,1-54.625-59.424q-2.906-.544-5.742-1.28ZM636,183.028c.19.335.733.811,2.636,1.474.62-.963,1.072-1.843,1.493-2.625a39.289,39.289,0,0,0,5.859,2.219l-9.709,13.761q.195-2.878.2-5.808a85.431,85.431,0,0,0-.477-9.02Z" transform="translate(-471.594 -0.03)"/>
      <path id="Trazado_173" data-name="Trazado 173" class="cls-2" d="M171.37,1242.065a62.7,62.7,0,0,1,7.533-6.368,2.071,2.071,0,0,0,1.974,1.425c10.294-.03,18.185,1.683,24.748,4.583s11.848,7.013,16.916,11.774a2.089,2.089,0,0,0,2.132.445,77.7,77.7,0,0,1,22.311-2.564,84.682,84.682,0,0,1,22.472,3.347,61.484,61.484,0,0,1-9.85,74.741,62.825,62.825,0,0,1-88.236-.037,61.332,61.332,0,0,1,0-87.346Zm11.56-9.031.329-.2-.068.2Zm83.143,16.512h0l-.511-.117Zm-30.04,15.678a29.492,29.492,0,0,0-20.71-8.646,29.161,29.161,0,1,0,0,58.321,29.493,29.493,0,0,0,20.71-8.646,28.469,28.469,0,0,0,0-41.028Zm118.165,48.6h31.056A16.567,16.567,0,0,1,401.8,1330.37a16.068,16.068,0,0,1-4.908,11.478,16.631,16.631,0,0,1-11.64,4.76H322.546a15.55,15.55,0,0,1-4.9-.8,16.834,16.834,0,0,1-4.374-2.2l-.141-.093a16.093,16.093,0,0,1-3.95-22.639l.011.007c14.637-21.748,30.643-43.428,45.8-64.914H321.772a15.8,15.8,0,0,1-11.129-4.6A15.508,15.508,0,0,1,306,1240.341a15.258,15.258,0,0,1,4.656-10.942,15.9,15.9,0,0,1,11.118-4.528h63.174a20.448,20.448,0,0,1,4.976.57,13.821,13.821,0,0,1,5.18,2.463l.016.016a17.4,17.4,0,0,1,6.432,10.657,15.891,15.891,0,0,1-2.661,11.938l-.011-.008L354.2,1313.827Zm93.839,32.782a16.382,16.382,0,0,1-11.574-4.754,16.153,16.153,0,0,1-4.818-11.484v-89.262a16.151,16.151,0,0,1,4.818-11.483,16.467,16.467,0,0,1,23.149,0,16.152,16.152,0,0,1,4.818,11.483v89.262a16.153,16.153,0,0,1-4.818,11.484A16.385,16.385,0,0,1,448.037,1346.607Zm94.282-32.782h31.056a16.567,16.567,0,0,1,16.547,16.545,16.068,16.068,0,0,1-4.907,11.478,16.632,16.632,0,0,1-11.64,4.76H510.666a15.55,15.55,0,0,1-4.9-.8,16.833,16.833,0,0,1-4.374-2.2l-.141-.093a16.093,16.093,0,0,1-3.95-22.639l.011.007c14.637-21.748,30.643-43.428,45.8-64.914H509.892a15.805,15.805,0,0,1-11.129-4.6,15.508,15.508,0,0,1-4.645-11.023,15.257,15.257,0,0,1,4.656-10.942,15.894,15.894,0,0,1,11.118-4.528h63.174a20.449,20.449,0,0,1,4.976.57,13.822,13.822,0,0,1,5.18,2.463l.016.016a17.394,17.394,0,0,1,6.432,10.657,15.89,15.89,0,0,1-2.661,11.938l-.011-.008-44.677,63.321Zm93.839,32.782a16.382,16.382,0,0,1-11.574-4.754,16.153,16.153,0,0,1-4.818-11.484v-89.262a16.152,16.152,0,0,1,4.818-11.483,16.467,16.467,0,0,1,23.149,0,16.152,16.152,0,0,1,4.818,11.483v89.262a16.153,16.153,0,0,1-4.818,11.484A16.384,16.384,0,0,1,636.157,1346.607Z" transform="translate(-136.55 -1093.721)"/>
      <path id="Trazado_174" data-name="Trazado 174" class="cls-1" d="M280.257,855.82a2.053,2.053,0,0,0-1.083-1.477l-21.233-11.03,74.021-14.323,63.254,40.862-24.659,2.106a2.068,2.068,0,0,0-1.909,2.068l-.56.045.574-6.477a2.051,2.051,0,0,0-1.013-1.948,125.187,125.187,0,0,0-39.537-15.018,135.582,135.582,0,0,0-44.457-.938,2.075,2.075,0,0,0-1.818,1.41Z" transform="translate(-230.057 -740.23)"/>
      <path id="Trazado_175" data-name="Trazado 175" class="cls-2" d="M103.353,813.96c-11.636-2.7-19.664-.864-25.463,4.377-6.923,6.257-10.863,17.4-14.019,31.5-2.6,11.619-9.631,14.164-15.66,16.347-4.543,1.645-8.435,3.054-8.585,8.829a1.23,1.23,0,0,1-2.459-.057c.195-7.441,4.812-9.113,10.205-11.065,5.443-1.97,11.789-4.268,14.1-14.578,3.258-14.551,7.386-26.11,14.761-32.776,7.236-6.54,17.427-8.333,32.685-3.581l-5.563,1.009Z" transform="translate(-33.149 -723.516)"/>
      <path id="Trazado_176" data-name="Trazado 176" class="cls-2" d="M44.859,1435.038a.471.471,0,0,1-.477-.463l-.152-15.743a.472.472,0,0,1,.944-.01l.152,15.743A.471.471,0,0,1,44.859,1435.038Z" transform="translate(-39.448 -1266.493)"/>
      <path id="Trazado_177" data-name="Trazado 177" class="cls-2" d="M31.461,1435.153a.471.471,0,0,1-.477-.456c-.1-4.114-.048-8.28.146-12.386a7.582,7.582,0,0,1,.237-1.8,2.209,2.209,0,0,1,1.163-1.489.473.473,0,0,1,.614.258.465.465,0,0,1-.259.608,1.386,1.386,0,0,0-.613.888,6.811,6.811,0,0,0-.2,1.574c-.192,4.084-.241,8.23-.146,12.321a.47.47,0,0,1-.46.479Z" transform="translate(-27.592 -1267.057)"/>
      <path id="Trazado_178" data-name="Trazado 178" class="cls-2" d="M14.273,1434.466l-.065,0a.47.47,0,0,1-.409-.524,33.278,33.278,0,0,0,.156-4.659l-.009-.74a23.076,23.076,0,0,1,.444-5.528,6.661,6.661,0,0,1,2.714-4.33.474.474,0,0,1,.644.172.465.465,0,0,1-.174.638,5.847,5.847,0,0,0-2.266,3.735,22.267,22.267,0,0,0-.418,5.3l.009.737a34.165,34.165,0,0,1-.162,4.79.471.471,0,0,1-.464.408Z" transform="translate(-12.304 -1266.725)"/>
      <path id="Trazado_179" data-name="Trazado 179" class="cls-2" d="M47.351,1435.124h-.006a.47.47,0,0,1-.47-.469c.017-4.1-.112-8.239-.383-12.316a6.783,6.783,0,0,0-.229-1.57,1.385,1.385,0,0,0-.629-.876.466.466,0,0,1-.271-.6.474.474,0,0,1,.61-.269,2.208,2.208,0,0,1,1.191,1.467,7.506,7.506,0,0,1,.271,1.79c.272,4.1.4,8.264.385,12.382a.471.471,0,0,1-.468.466Z" transform="translate(-40.43 -1267.056)"/>
      <path id="Trazado_180" data-name="Trazado 180" class="cls-2" d="M49.891,1434.369a.471.471,0,0,1-.471-.4,33.934,33.934,0,0,1-.255-4.78l-.005-.743a22.239,22.239,0,0,0-.521-5.294,5.844,5.844,0,0,0-2.338-3.692.464.464,0,0,1-.186-.635.473.473,0,0,1,.641-.184,6.659,6.659,0,0,1,2.8,4.278,22.978,22.978,0,0,1,.55,5.519l.005.746a33.274,33.274,0,0,0,.245,4.648.47.47,0,0,1-.4.531l-.065,0Z" transform="translate(-41.077 -1266.693)"/>
      <path id="Trazado_181" data-name="Trazado 181" class="cls-2" d="M.5,1431.49a.47.47,0,0,1-.477-.459,43.336,43.336,0,0,1,.123-5.356,13.223,13.223,0,0,1,1.439-5.059,4.88,4.88,0,0,1,3.615-2.772.477.477,0,0,1,.51.426.468.468,0,0,1-.43.505,4.036,4.036,0,0,0-2.87,2.294,12.354,12.354,0,0,0-1.325,4.7,42.831,42.831,0,0,0-.118,5.241.469.469,0,0,1-.464.475h0Z" transform="translate(0.003 -1266.031)"/>
      <path id="Trazado_182" data-name="Trazado 182" class="cls-2" d="M49.6,1431.4h0a.469.469,0,0,1-.472-.467,42.623,42.623,0,0,0-.219-5.238,12.347,12.347,0,0,0-1.415-4.678,4.04,4.04,0,0,0-2.913-2.239.467.467,0,1,1,.061-.933,4.883,4.883,0,0,1,3.669,2.7,13.267,13.267,0,0,1,1.536,5.032,43.456,43.456,0,0,1,.226,5.353A.47.47,0,0,1,49.6,1431.4Z" transform="translate(-39.361 -1266.03)"/>
      <path id="Trazado_183" data-name="Trazado 183" class="cls-2" d="M36.163,1405.61c.005.6-.753,1.085-1.7,1.093s-1.711-.467-1.718-1.06.753-1.085,1.7-1.094S36.158,1405.015,36.163,1405.61Z" transform="translate(-29.209 -1254.161)"/>
      <path id="Trazado_184" data-name="Trazado 184" class="cls-1" d="M431.46,1074.933c9.819.217,17.562,2.015,24.125,4.915a62.462,62.462,0,0,1,17.229,11.749,82.9,82.9,0,0,1,22.521-2.449,91.661,91.661,0,0,1,21.337,2.873l2.495-28.1a120.767,120.767,0,0,0-37.09-13.865A130.915,130.915,0,0,0,440.14,1049l-8.679,25.938Z" transform="translate(-384.82 -935.615)"/>
    </g>
  </g>
</svg>
